<svg width="270" height="183" viewBox="0 0 270 183" fill="none" xmlns="http://www.w3.org/2000/svg">
<path d="M95.3354 140.221L81.6506 141.659L84.1348 165.295L60.7434 167.753L58.2592 144.118L9.72597 149.219L7.96355 132.451L50.0319 53.5946L72.1503 51.2699L79.6868 122.975L93.3716 121.536L95.3354 140.221ZM54.2644 106.11C54.0741 104.3 53.8503 102.17 53.593 99.7217C53.4305 97.1553 53.2736 94.6422 53.1223 92.1824C52.9598 89.616 52.8309 87.3691 52.7356 85.4416C52.6291 83.4076 52.5897 82.0124 52.6174 81.2559L51.9809 81.3228C51.25 83.5525 50.4604 85.7345 49.6122 87.8689C48.7639 90.0032 47.7092 92.2131 46.4478 94.4985L28.9258 128.31L56.2954 125.433L54.2644 106.11Z" fill="#FF4242"/>
<path d="M174.631 98.141C175.593 107.297 175.712 115.573 174.988 122.969C174.37 130.353 172.738 136.768 170.093 142.213C167.542 147.54 163.861 151.802 159.048 154.999C154.342 158.185 148.329 160.162 141.009 160.932C131.886 161.891 124.161 160.334 117.834 156.263C111.507 152.192 106.453 145.942 102.671 137.513C98.9953 129.072 96.514 118.73 95.2271 106.487C93.9291 94.1366 94.0943 83.4627 95.7227 74.4649C97.3512 65.4671 100.836 58.3193 106.179 53.0216C111.521 47.7239 119.019 44.5677 128.672 43.553C137.796 42.5942 145.521 44.1503 151.848 48.2216C158.163 52.1864 163.218 58.4366 167.011 66.9722C170.793 75.4014 173.333 85.791 174.631 98.141ZM119.096 103.978C120.002 112.602 121.241 119.791 122.811 125.546C124.37 131.195 126.42 135.393 128.961 138.14C131.597 140.769 134.931 141.872 138.962 141.448C142.993 141.025 145.971 139.259 147.897 136.15C149.929 133.03 151.12 128.545 151.47 122.696C151.916 116.729 151.679 109.38 150.762 100.65C149.844 91.9195 148.553 84.7356 146.888 79.0979C145.318 73.3427 143.215 69.1504 140.579 66.5211C138.038 63.7742 134.751 62.6126 130.72 63.0363C126.689 63.46 123.663 65.285 121.643 68.5113C119.717 71.6201 118.585 76.1524 118.245 82.1084C117.895 87.9579 118.178 95.2478 119.096 103.978Z" fill="#FF4242"/>
<path d="M267.307 122.146L253.622 123.584L256.107 147.22L232.715 149.678L230.231 126.043L181.698 131.144L179.935 114.376L222.004 35.5196L244.122 33.1949L251.659 104.9L265.343 103.461L267.307 122.146ZM226.236 88.0346C226.046 86.2247 225.822 84.0954 225.565 81.6467C225.402 79.0804 225.245 76.5673 225.094 74.1074C224.932 71.5411 224.803 69.2941 224.707 67.3666C224.601 65.3326 224.561 63.9374 224.589 63.181L223.953 63.2479C223.222 65.4776 222.432 67.6596 221.584 69.7939C220.736 71.9283 219.681 74.1381 218.42 76.4236L200.898 110.235L228.267 107.358L226.236 88.0346Z" fill="#FF4242"/>
<g filter="url(#filter0_b_383_16341)">
<path d="M235.226 142.088L162.272 15.4739C154.645 1.94816 137.284 -3.02452 123.637 4.5439C118.92 7.03024 115.107 10.899 112.598 15.3844L39.1419 142.983C33.2212 157.295 40.2458 173.804 54.7965 179.672C57.7067 180.766 60.8176 181.472 63.9284 181.661H210.841C218.368 181.263 225.292 177.981 230.41 172.422C235.527 166.842 238.137 159.592 237.735 152.133C237.534 148.941 236.832 145.868 235.226 142.088V142.088Z" fill="#FF7A7A" fill-opacity="0.35"/>
<path d="M235.687 141.893L235.226 142.088L235.66 141.839L162.707 15.2283C162.707 15.2276 162.706 15.2269 162.706 15.2262C154.945 1.46523 137.286 -3.59407 123.399 4.10408C118.596 6.63747 114.716 10.5751 112.164 15.1374C112.163 15.1384 112.162 15.1393 112.162 15.1403L38.7086 142.734C38.6978 142.753 38.6882 142.772 38.6799 142.792C32.651 157.365 39.8058 174.166 54.6095 180.136L54.6095 180.136L54.6206 180.14C57.5732 181.25 60.7331 181.968 63.8981 182.16C63.9026 182.16 63.9071 182.16 63.9116 182.161C63.9172 182.161 63.9228 182.161 63.9284 182.161H210.841C210.85 182.161 210.859 182.161 210.868 182.16C218.526 181.755 225.572 178.415 230.777 172.76L230.778 172.76C235.986 167.082 238.643 159.701 238.234 152.106L238.234 152.102C238.03 148.848 237.312 145.719 235.687 141.893Z" stroke="url(#paint0_linear_383_16341)" stroke-linecap="round" stroke-linejoin="round"/>
</g>
<g filter="url(#filter1_bd_383_16341)">
<mask id="path-4-inside-1_383_16341" fill="white">
<path fill-rule="evenodd" clip-rule="evenodd" d="M137.388 107.68C142.205 107.68 146.118 103.692 146.118 98.9178V70.7824C146.118 65.9986 142.205 62.1299 137.388 62.1299C132.571 62.1299 128.557 65.9986 128.557 70.7824V98.9178C128.557 103.692 132.571 107.68 137.388 107.68ZM128.557 132.936C128.557 137.7 132.571 141.688 137.388 141.688C142.205 141.688 146.119 137.7 146.119 132.827C146.119 128.063 142.205 124.174 137.388 124.174C132.571 124.174 128.557 128.152 128.557 132.936Z"/>
</mask>
<path fill-rule="evenodd" clip-rule="evenodd" d="M137.388 107.68C142.205 107.68 146.118 103.692 146.118 98.9178V70.7824C146.118 65.9986 142.205 62.1299 137.388 62.1299C132.571 62.1299 128.557 65.9986 128.557 70.7824V98.9178C128.557 103.692 132.571 107.68 137.388 107.68ZM128.557 132.936C128.557 137.7 132.571 141.688 137.388 141.688C142.205 141.688 146.119 137.7 146.119 132.827C146.119 128.063 142.205 124.174 137.388 124.174C132.571 124.174 128.557 128.152 128.557 132.936Z" fill="url(#paint1_linear_383_16341)"/>
<path d="M145.718 98.9178C145.718 103.474 141.981 107.28 137.388 107.28V108.08C142.429 108.08 146.518 103.909 146.518 98.9178H145.718ZM145.718 70.7824V98.9178H146.518V70.7824H145.718ZM137.388 62.5299C141.988 62.5299 145.718 66.2232 145.718 70.7824H146.518C146.518 65.774 142.422 61.7299 137.388 61.7299V62.5299ZM128.957 70.7824C128.957 66.2291 132.782 62.5299 137.388 62.5299V61.7299C132.36 61.7299 128.157 65.7682 128.157 70.7824H128.957ZM128.957 98.9178V70.7824H128.157V98.9178H128.957ZM137.388 107.28C132.789 107.28 128.957 103.468 128.957 98.9178H128.157C128.157 103.915 132.353 108.08 137.388 108.08V107.28ZM137.388 141.288C132.789 141.288 128.957 137.476 128.957 132.936H128.157C128.157 137.924 132.353 142.088 137.388 142.088V141.288ZM145.719 132.827C145.719 137.485 141.978 141.288 137.388 141.288V142.088C142.432 142.088 146.519 137.915 146.519 132.827H145.719ZM137.388 124.574C141.987 124.574 145.719 128.287 145.719 132.827H146.519C146.519 127.839 142.423 123.774 137.388 123.774V124.574ZM128.957 132.936C128.957 128.376 132.789 124.574 137.388 124.574V123.774C132.353 123.774 128.157 127.928 128.157 132.936H128.957Z" fill="url(#paint2_linear_383_16341)" mask="url(#path-4-inside-1_383_16341)"/>
</g>
<defs>
<filter id="filter0_b_383_16341" x="12.0405" y="-24.0005" width="250.735" height="230.662" filterUnits="userSpaceOnUse" color-interpolation-filters="sRGB">
<feFlood flood-opacity="0" result="BackgroundImageFix"/>
<feGaussianBlur in="BackgroundImageFix" stdDeviation="12"/>
<feComposite in2="SourceAlpha" operator="in" result="effect1_backgroundBlur_383_16341"/>
<feBlend mode="normal" in="SourceGraphic" in2="effect1_backgroundBlur_383_16341" result="shape"/>
</filter>
<filter id="filter1_bd_383_16341" x="113.557" y="47.1299" width="47.5615" height="109.558" filterUnits="userSpaceOnUse" color-interpolation-filters="sRGB">
<feFlood flood-opacity="0" result="BackgroundImageFix"/>
<feGaussianBlur in="BackgroundImageFix" stdDeviation="7.5"/>
<feComposite in2="SourceAlpha" operator="in" result="effect1_backgroundBlur_383_16341"/>
<feColorMatrix in="SourceAlpha" type="matrix" values="0 0 0 0 0 0 0 0 0 0 0 0 0 0 0 0 0 0 127 0" result="hardAlpha"/>
<feOffset dx="5" dy="5"/>
<feGaussianBlur stdDeviation="5"/>
<feColorMatrix type="matrix" values="0 0 0 0 1 0 0 0 0 0.376471 0 0 0 0 0.580392 0 0 0 1 0"/>
<feBlend mode="normal" in2="effect1_backgroundBlur_383_16341" result="effect2_dropShadow_383_16341"/>
<feBlend mode="normal" in="SourceGraphic" in2="effect2_dropShadow_383_16341" result="shape"/>
</filter>
<linearGradient id="paint0_linear_383_16341" x1="68.9947" y1="22.0472" x2="181.12" y2="176.348" gradientUnits="userSpaceOnUse">
<stop stop-color="white" stop-opacity="0.25"/>
<stop offset="1" stop-color="white" stop-opacity="0"/>
</linearGradient>
<linearGradient id="paint1_linear_383_16341" x1="137.34" y1="66.6176" x2="121.216" y2="65.1243" gradientUnits="userSpaceOnUse">
<stop stop-color="white" stop-opacity="0.75"/>
<stop offset="1" stop-color="white" stop-opacity="0.2"/>
</linearGradient>
<linearGradient id="paint2_linear_383_16341" x1="131.353" y1="71.3985" x2="157.764" y2="78.6191" gradientUnits="userSpaceOnUse">
<stop stop-color="white" stop-opacity="0.25"/>
<stop offset="1" stop-color="white" stop-opacity="0"/>
</linearGradient>
</defs>
</svg>
