<svg width="18" height="20" viewBox="0 0 18 20" fill="none" xmlns="http://www.w3.org/2000/svg">
<path d="M12.2088 14.7917V15.75C12.2088 17.3378 10.9216 18.625 9.33378 18.625C7.74596 18.625 6.45878 17.3378 6.45878 15.75V14.7917M12.2088 14.7917H6.45878M12.2088 14.7917H15.6497C16.0163 14.7917 16.2004 14.7917 16.3489 14.7416C16.6324 14.646 16.8543 14.4233 16.9499 14.1398C17.0002 13.9908 17.0002 13.806 17.0002 13.4365C17.0002 13.2748 17 13.194 16.9873 13.1169C16.9634 12.9713 16.9069 12.8332 16.8208 12.7132C16.7753 12.6499 16.7175 12.5921 16.6035 12.4781L16.2302 12.1048C16.1098 11.9843 16.0421 11.821 16.0421 11.6506V8.08333C16.0421 4.37842 13.0387 1.37499 9.33378 1.375C5.62888 1.37501 2.62545 4.37843 2.62545 8.08333V11.6507C2.62545 11.821 2.55764 11.9843 2.4372 12.1048L2.06392 12.4781C1.94959 12.5924 1.89236 12.6498 1.8468 12.7133C1.7607 12.8332 1.70367 12.9713 1.67976 13.1169C1.66711 13.194 1.66711 13.2749 1.66711 13.4365C1.66711 13.806 1.66711 13.9907 1.71738 14.1398C1.81302 14.4233 2.03588 14.646 2.31942 14.7416C2.46786 14.7917 2.65134 14.7917 3.01794 14.7917H6.45878" stroke="black" strokeWidth="2" strokeLinecap="round" strokeLinejoin="round"/>
</svg>
