<svg width="15" height="16" viewBox="0 0 15 16" fill="none" xmlns="http://www.w3.org/2000/svg">
<path d="M7.49996 11.1668V8.79179M7.49996 8.79179V6.41679M7.49996 8.79179H5.12496M7.49996 8.79179H9.87496M1.16663 11.8002V7.5664C1.16663 7.14338 1.16663 6.93176 1.21806 6.73492C1.26364 6.56048 1.33866 6.39541 1.43992 6.24624C1.55419 6.07791 1.71338 5.93832 2.03174 5.65976L5.833 2.33366C6.42317 1.81725 6.71828 1.55904 7.05063 1.46075C7.34369 1.37408 7.65607 1.37408 7.94914 1.46075C8.28174 1.55911 8.57727 1.81757 9.16833 2.33476L12.9683 5.65976C13.2867 5.93831 13.4456 6.07791 13.5598 6.24623C13.6611 6.39541 13.7363 6.56048 13.7819 6.73492C13.8333 6.93167 13.8333 7.14377 13.8333 7.5664V11.803C13.8333 12.688 13.8333 13.131 13.6609 13.4693C13.5091 13.7673 13.2666 14.0093 12.9687 14.1611C12.6303 14.3335 12.1878 14.3335 11.3028 14.3335H3.69751C2.8125 14.3335 2.36933 14.3335 2.03097 14.1611C1.73304 14.0093 1.491 13.7673 1.3392 13.4693C1.16663 13.1306 1.16663 12.6869 1.16663 11.8002Z" stroke="#2A7FFE" strokeWidth="1.5" strokeLinecap="round" strokeLinejoin="round"/>
</svg>
