<svg width="21" height="19" viewBox="0 0 21 19" fill="none" xmlns="http://www.w3.org/2000/svg">
<path d="M3.61828 16.9203L5.14733 15.7012L5.15857 15.6926C5.47734 15.4384 5.6382 15.3101 5.81766 15.2188C5.97867 15.1368 6.15037 15.0771 6.32748 15.0408C6.52711 15 6.73506 15 7.15249 15H15.8624C16.9841 15 17.5456 15 17.9744 14.7822C18.352 14.5905 18.6591 14.2842 18.8515 13.9079C19.07 13.4805 19.07 12.9215 19.07 11.8036V4.19691C19.07 3.07899 19.07 2.5192 18.8515 2.0918C18.6591 1.71547 18.3513 1.40973 17.9738 1.21799C17.5445 1 16.9834 1 15.8595 1H4.22087C3.09703 1 2.5347 1 2.10545 1.21799C1.72787 1.40973 1.42111 1.71547 1.22872 2.0918C1.01001 2.51962 1.01001 3.08009 1.01001 4.2002V15.6712C1.01001 16.7369 1.01001 17.2696 1.2292 17.5433C1.41982 17.7813 1.70877 17.9198 2.01432 17.9195C2.36566 17.9191 2.78334 17.5861 3.61828 16.9203Z" stroke="#0066FF" stroke-width="2" strokeLinecap="round" strokeLinejoin="round"/>
</svg>
