<svg width="30" height="31" viewBox="0 0 30 31" fill="none" xmlns="http://www.w3.org/2000/svg">
<path d="M23.75 31C22.1269 31.0188 20.5886 30.2771 19.5924 28.9956C18.5962 27.7141 18.2569 26.0403 18.6755 24.472L9.28552 19.105C7.66294 20.5916 5.28454 20.9062 3.33125 19.8927C1.37795 18.8791 0.265826 16.7533 0.547066 14.5708C0.828306 12.3883 2.44301 10.6139 4.58943 10.1286C6.73585 9.64338 8.9568 10.5507 10.1495 12.4L18.674 7.5265C18.5637 7.10978 18.5053 6.68104 18.5 6.25C18.4785 3.74007 20.2217 1.55971 22.6748 1.02823C25.1279 0.496754 27.6172 1.76012 28.6365 4.05387C29.6557 6.34763 28.925 9.04184 26.8865 10.5063C24.8479 11.9707 22.0614 11.8031 20.213 10.105L10.9865 15.3775C10.9774 15.7665 10.923 16.1531 10.8245 16.5295L20.213 21.895C21.9414 20.3088 24.5132 20.064 26.5098 21.2955C28.5065 22.527 29.442 24.9351 28.8003 27.1915C28.1586 29.448 26.0959 31.0034 23.75 31ZM23.75 23.5C22.5074 23.5 21.5 24.5074 21.5 25.75C21.5 26.9926 22.5074 28 23.75 28C24.9927 28 26 26.9926 26 25.75C26 24.5074 24.9927 23.5 23.75 23.5ZM5.75002 13C4.50737 13 3.50002 14.0074 3.50002 15.25C3.50002 16.4926 4.50737 17.5 5.75002 17.5C6.99266 17.5 8.00002 16.4926 8.00002 15.25C8.00002 14.0074 6.99266 13 5.75002 13ZM23.75 4C22.5074 4 21.5 5.00736 21.5 6.25C21.5 7.49264 22.5074 8.5 23.75 8.5C24.9927 8.5 26 7.49264 26 6.25C26 5.00736 24.9927 4 23.75 4Z" fill="#464748"/>
</svg>
