<svg width="132" height="22" viewBox="0 0 132 22" fill="none" xmlns="http://www.w3.org/2000/svg">
<path d="M18.3894 17.8359L11.4293 21.852C11.0919 22.0478 10.6796 22.0478 10.3422 21.852L3.40297 17.8443C1.29954 16.6278 0 14.3823 0 11.9535V9.64547C0 7.21666 1.29538 4.96699 3.40297 3.75466L9.65076 0.146854C9.98815 -0.0489512 10.4005 -0.0489512 10.7379 0.146854L17.5646 4.08795C18.2894 4.50872 18.2894 5.5544 17.5646 5.97101L12.3748 8.97057C11.75 9.33302 11.3627 9.99959 11.3627 10.7245C11.3627 11.4494 11.75 12.1159 12.3748 12.4784L18.3852 15.9487C19.1099 16.3695 19.1099 17.4152 18.3852 17.8318L18.3894 17.8359Z" fill="#2A7FFE"/>
<path d="M18.3865 17.836L11.4264 21.8562C11.089 22.0479 10.6767 22.0479 10.3435 21.8562L9.38129 21.298C7.77353 20.369 6.78638 18.6525 6.78638 16.7986V16.0279C6.78638 13.6616 8.04843 11.4744 10.1019 10.2913L12.3511 8.99146C11.7388 9.3539 11.3681 10.0205 11.3681 10.7287C11.3681 11.4369 11.7555 12.1202 12.3761 12.4784L18.3906 15.9488C19.1154 16.3654 19.1154 17.4111 18.3906 17.8318L18.3865 17.836Z" fill="#0FFED4"/>
<path d="M18.3535 17.7994L11.3934 21.8196C11.0561 22.0113 10.6437 22.0113 10.3105 21.8196L9.34833 21.2614C7.74057 20.3323 6.75342 18.6159 6.75342 16.762V15.9913C6.75342 13.625 8.01547 11.4378 10.0689 10.2546L12.3181 8.95483C11.7058 9.31728 11.3351 9.98385 11.3351 10.6921C11.3351 11.4003 11.7225 12.0835 12.3431 12.4418L18.3577 15.9122C19.0824 16.3288 19.0824 17.3744 18.3577 17.7952L18.3535 17.7994Z" fill="url(#paint0_linear_116_16040)"/>
<path d="M29.9407 17.4119C28.666 16.7265 27.6639 15.7758 26.9345 14.5598C26.2051 13.3438 25.8403 11.9694 25.8403 10.4365C25.8403 8.90364 26.2051 7.52921 26.9345 6.31322C27.6639 5.09723 28.666 4.14655 29.9407 3.46117C31.2154 2.77579 32.6485 2.43311 34.24 2.43311C35.581 2.43311 36.793 2.66893 37.8761 3.14059C38.9593 3.61225 39.8692 4.29025 40.606 5.17461L38.3072 7.29706C37.2609 6.08844 35.9641 5.48413 34.4168 5.48413C33.459 5.48413 32.6043 5.69417 31.8527 6.11424C31.1012 6.53431 30.5154 7.12019 30.0954 7.8719C29.6754 8.6236 29.4654 9.47848 29.4654 10.4365C29.4654 11.3946 29.6754 12.2495 30.0954 13.0012C30.5154 13.7529 31.1012 14.3387 31.8527 14.7588C32.6043 15.1789 33.459 15.3889 34.4168 15.3889C35.9641 15.3889 37.2609 14.7772 38.3072 13.5539L40.606 15.6763C39.8692 16.5754 38.9556 17.2608 37.8651 17.7325C36.7746 18.2041 35.5589 18.44 34.2179 18.44C32.6411 18.44 31.2154 18.0973 29.9407 17.4119Z" fill="black"/>
<path d="M56.2547 2.69019V18.1664H52.6738V11.7106H45.6446V18.1664H42.0637V2.69019H45.6446V8.9249H52.6738V2.69019H56.2547Z" fill="black"/>
<path d="M70.8045 15.2998V18.174H58.824V2.69775H70.8045V5.57191H62.3828V8.93247H69.5667V11.7182H62.3828V15.2998H70.8045Z" fill="black"/>
<path d="M86.3541 18.174L86.332 8.88825L81.7785 16.5379H80.1649L75.6335 9.08723V18.174H72.2737V2.69775H75.2357L81.027 12.3151L86.7299 2.69775H89.6698L89.714 18.174H86.3541Z" fill="black"/>
<path d="M103.957 15.2998V18.174H91.9761V2.69775H103.957V5.57191H95.5349V8.93247H102.719V11.7182H95.5349V15.2998H103.957Z" fill="black"/>
<path d="M117.331 15.2998V18.174H105.351V2.69775H117.331V5.57191H108.91V8.93247H116.094V11.7182H108.91V15.2998H117.331Z" fill="black"/>
<path d="M123.468 5.61613H118.517V2.69775H132V5.61613H127.049V18.174H123.468V5.61613Z" fill="black"/>
<defs>
<linearGradient id="paint0_linear_116_16040" x1="18.8786" y1="18.3701" x2="1.46229" y2="12.5054" gradientUnits="userSpaceOnUse">
<stop stop-color="#48E3C8" stop-opacity="0"/>
<stop offset="1" stop-color="#2AB59D"/>
</linearGradient>
</defs>
</svg>
