<svg width="2304" height="384" viewBox="0 0 2304 384" fill="none" xmlns="http://www.w3.org/2000/svg">
<path d="M320.977 311.318L199.493 381.417C193.604 384.834 186.407 384.834 180.518 381.417L59.3971 311.463C22.6829 290.23 0 251.036 0 208.642V168.357C0 125.963 22.6102 86.6963 59.3971 65.5358L168.449 2.56326C174.338 -0.854419 181.536 -0.854419 187.424 2.56326L306.582 71.3531C319.232 78.6975 319.232 96.9493 306.582 104.221L215.996 156.577C205.091 162.903 198.33 174.538 198.33 187.191C198.33 199.843 205.091 211.478 215.996 217.804L320.904 278.377C333.555 285.722 333.555 303.973 320.904 311.245L320.977 311.318Z" fill="#2A7FFE"/>
<path d="M320.925 311.312L199.441 381.483C193.552 384.828 186.354 384.828 180.538 381.483L163.744 371.739C135.681 355.523 118.451 325.564 118.451 293.205V279.753C118.451 238.45 140.48 200.274 176.322 179.622L215.58 156.935C204.893 163.261 198.423 174.896 198.423 187.257C198.423 199.619 205.184 211.545 216.017 217.798L320.998 278.371C333.648 285.643 333.648 303.895 320.998 311.239L320.925 311.312Z" fill="#0FFED4"/>
<path d="M320.349 310.683L198.865 380.855C192.976 384.2 185.779 384.2 179.963 380.855L163.169 371.111C135.106 354.895 117.875 324.936 117.875 292.577V279.124C117.875 237.821 139.904 199.645 175.746 178.994L215.005 156.306C204.318 162.632 197.847 174.267 197.847 186.629C197.847 198.991 204.608 210.916 215.441 217.17L320.422 277.743C333.072 285.014 333.072 303.266 320.422 310.611L320.349 310.683Z" fill="url(#paint0_linear_116_15882)"/>
<path d="M522.599 303.923C500.35 291.96 482.859 275.366 470.127 254.141C457.395 232.917 451.029 208.927 451.029 182.171C451.029 155.415 457.395 131.425 470.127 110.201C482.859 88.9761 500.35 72.3824 522.599 60.4195C544.848 48.4565 569.862 42.4751 597.641 42.4751C621.048 42.4751 642.203 46.5914 661.109 54.8239C680.014 63.0565 695.897 74.8907 708.758 90.3267L668.632 127.373C650.37 106.277 627.735 95.7294 600.728 95.7294C584.009 95.7294 569.09 99.3954 555.973 106.728C542.855 114.06 532.63 124.286 525.3 137.407C517.969 150.527 514.304 165.449 514.304 182.171C514.304 198.893 517.969 213.815 525.3 226.936C532.63 240.056 542.855 250.282 555.973 257.615C569.09 264.947 584.009 268.613 600.728 268.613C627.735 268.613 650.37 257.936 668.632 236.583L708.758 273.629C695.897 289.323 679.95 301.286 660.916 309.518C641.882 317.751 620.662 321.867 597.255 321.867C569.733 321.867 544.848 315.886 522.599 303.923Z" fill="black"/>
<path d="M981.9 46.958V317.088H919.397V204.405H796.707V317.088H734.204V46.958H796.707V155.782H919.397V46.958H981.9Z" fill="black"/>
<path d="M1235.86 267.058V317.225H1026.75V47.0952H1235.86V97.2622H1088.86V155.919H1214.25V204.542H1088.86V267.058H1235.86Z" fill="black"/>
<path d="M1507.27 317.225L1506.88 155.147L1427.4 288.669H1399.24L1320.14 158.62V317.225H1261.5V47.0952H1313.2L1414.29 214.962L1513.83 47.0952H1565.14L1565.91 317.225H1507.27Z" fill="black"/>
<path d="M1814.51 267.058V317.225H1605.4V47.0952H1814.51V97.2622H1667.51V155.919H1792.91V204.542H1667.51V267.058H1814.51Z" fill="black"/>
<path d="M2047.97 267.058V317.225H1838.86V47.0952H2047.97V97.2622H1900.97V155.919H2026.36V204.542H1900.97V267.058H2047.97Z" fill="black"/>
<path d="M2155.07 98.034H2068.65V47.0952H2304V98.034H2217.58V317.225H2155.07V98.034Z" fill="black"/>
<defs>
<linearGradient id="paint0_linear_116_15882" x1="329.514" y1="320.645" x2="25.5213" y2="218.28" gradientUnits="userSpaceOnUse">
<stop stop-color="#48E3C8" stop-opacity="0"/>
<stop offset="1" stop-color="#2AB59D"/>
</linearGradient>
</defs>
</svg>
