<svg width="19" height="20" viewBox="0 0 19 20" fill="none" xmlns="http://www.w3.org/2000/svg">
<path d="M1.5 7H17.5M1.5 7V15.8002C1.5 16.9203 1.5 17.4801 1.71799 17.9079C1.90973 18.2842 2.21547 18.5905 2.5918 18.7822C3.0192 19 3.57899 19 4.69691 19H14.3031C15.421 19 15.98 19 16.4074 18.7822C16.7837 18.5905 17.0905 18.2842 17.2822 17.9079C17.5 17.4805 17.5 16.9215 17.5 15.8036V7M1.5 7V6.2002C1.5 5.08009 1.5 4.51962 1.71799 4.0918C1.90973 3.71547 2.21547 3.40973 2.5918 3.21799C3.01962 3 3.58009 3 4.7002 3H5.5M17.5 7V6.19691C17.5 5.07899 17.5 4.5192 17.2822 4.0918C17.0905 3.71547 16.7837 3.40973 16.4074 3.21799C15.9796 3 15.4203 3 14.3002 3H13.5M5.5 3H13.5M5.5 3V1M13.5 3V1M9.25 15C9.38807 15 9.5 14.8881 9.5 14.75V11.25C9.5 11.1119 9.38807 11 9.25 11H5.75C5.61193 11 5.5 11.1119 5.5 11.25V14.75C5.5 14.8881 5.61193 15 5.75 15H9.25Z" stroke="#D9D9DA" stroke-width="2" stroke-linecap="round" stroke-linejoin="round"/>
</svg>
