<svg width="19" height="19" viewBox="0 0 19 19" fill="none" xmlns="http://www.w3.org/2000/svg">
<path d="M17.5 2.6001C17.5 2.04005 17.4996 1.75981 17.3906 1.5459C17.2948 1.35774 17.1423 1.20487 16.9542 1.10899C16.7403 1 16.4597 1 15.8996 1H3.09961C2.53956 1 2.25981 1 2.0459 1.10899C1.85774 1.20487 1.70487 1.35774 1.60899 1.5459C1.5 1.75981 1.5 2.04005 1.5 2.6001V3.33736C1.5 3.58195 1.5 3.70433 1.52763 3.81942C1.55213 3.92146 1.59263 4.01893 1.64746 4.1084C1.70928 4.20928 1.79591 4.29591 1.96875 4.46875L7.03149 9.53149C7.20443 9.70443 7.29044 9.79044 7.35228 9.89135C7.40711 9.98082 7.44816 10.0786 7.47266 10.1807C7.5 10.2946 7.5 10.4155 7.5 10.6552V15.411C7.5 16.2682 7.5 16.6971 7.68054 16.9552C7.83819 17.1806 8.0814 17.331 8.35352 17.3712C8.66514 17.4172 9.04871 17.2257 9.81543 16.8424L10.6154 16.4424C10.9365 16.2819 11.0966 16.2013 11.2139 16.0815C11.3176 15.9756 11.397 15.8485 11.4453 15.7084C11.5 15.5499 11.5 15.37 11.5 15.011V10.6626C11.5 10.418 11.5 10.2958 11.5276 10.1807C11.5521 10.0786 11.5926 9.98082 11.6475 9.89135C11.7089 9.79111 11.7947 9.70533 11.9653 9.53469L11.9688 9.53149L17.0315 4.46875C17.2044 4.2958 17.2904 4.20932 17.3523 4.1084C17.4071 4.01893 17.4482 3.92146 17.4727 3.81942C17.5 3.70551 17.5 3.58444 17.5 3.3448V2.6001Z" stroke="#D9D9DA" stroke-width="2" stroke-linecap="round" stroke-linejoin="round"/>
</svg>
