<svg width="21" height="23" viewBox="0 0 21 23" fill="none" xmlns="http://www.w3.org/2000/svg">
<path d="M19.4974 12.0005V16.0489C19.4974 17.3904 17.3224 18.478 14.6393 18.478C11.9563 18.478 9.78125 17.3904 9.78125 16.0489V12.0005" stroke="#D9D9DA" stroke-width="1.8" stroke-linecap="round" stroke-linejoin="round"/>
<path d="M19.4974 7.95208V12.0005C19.4974 13.342 17.3224 14.4295 14.6393 14.4295C11.9563 14.4295 9.78125 13.342 9.78125 12.0005V7.95208M19.4974 7.95208V3.90366M19.4974 7.95208C19.4974 9.2936 17.3224 10.3811 14.6393 10.3811C11.9563 10.3811 9.78125 9.2936 9.78125 7.95208M19.4974 3.90366C19.4974 2.56213 17.3224 1.47461 14.6393 1.47461C11.9563 1.47461 9.78125 2.56213 9.78125 3.90366M19.4974 3.90366C19.4974 5.24519 17.3224 6.33271 14.6393 6.33271C11.9563 6.33271 9.78125 5.24519 9.78125 3.90366M9.78125 7.95208V3.90366" stroke="#D9D9DA" stroke-width="1.8" stroke-linecap="round" stroke-linejoin="round"/>
<path d="M12.5 14.0254V18.0879C12.5 19.4341 10.2614 20.5254 7.5 20.5254C4.73858 20.5254 2.5 19.4341 2.5 18.0879V14.0254V9.96289C2.5 8.6167 4.73858 7.52539 7.5 7.52539C10.2614 7.52539 12.5 8.6167 12.5 9.96289V14.0254Z" fill="white" stroke="white" stroke-width="4" stroke-linecap="round" stroke-linejoin="round"/>
<path d="M12.5 14.0254V18.0879C12.5 19.4341 10.2614 20.5254 7.5 20.5254C4.73858 20.5254 2.5 19.4341 2.5 18.0879V14.0254M12.5 14.0254V9.96289M12.5 14.0254C12.5 15.3716 10.2614 16.4629 7.5 16.4629C4.73858 16.4629 2.5 15.3716 2.5 14.0254M12.5 9.96289C12.5 8.6167 10.2614 7.52539 7.5 7.52539C4.73858 7.52539 2.5 8.6167 2.5 9.96289M12.5 9.96289C12.5 11.3091 10.2614 12.4004 7.5 12.4004C4.73858 12.4004 2.5 11.3091 2.5 9.96289M2.5 14.0254V9.96289" stroke="#D9D9DA" stroke-width="1.8" stroke-linecap="round" stroke-linejoin="round"/>
</svg>
