<svg width="19" height="18" viewBox="0 0 19 18" fill="none" xmlns="http://www.w3.org/2000/svg">
<path d="M12.5 17H6.5M4.69691 14C3.57899 14 3.0192 14 2.5918 13.7822C2.21547 13.5905 1.90973 13.2837 1.71799 12.9074C1.59698 12.6699 1.54315 11.3919 1.5192 11M4.69691 14H14.3031M4.69691 14H3.09961C2.53956 14 2.25981 13.9996 2.0459 13.8906C1.85774 13.7948 1.70487 13.6429 1.60899 13.4548C1.5 13.2409 1.5 12.9601 1.5 12.4V12L1.5192 11M1.5192 11C1.5 10.6859 1.5 11.2985 1.5 10.8002V4.2002C1.5 3.08009 1.5 2.51962 1.71799 2.0918C1.90973 1.71547 2.21547 1.40973 2.5918 1.21799C3.01962 1 3.58009 1 4.7002 1H14.3002C15.4203 1 15.9796 1 16.4074 1.21799C16.7837 1.40973 17.0905 1.71547 17.2822 2.0918C17.5 2.5192 17.5 3.07899 17.5 4.19691V10.8031C17.5 11.3 17.5 10.6864 17.4809 11M1.5192 11H17.4809M17.4809 11C17.457 11.3919 17.4032 12.67 17.2822 12.9074C17.0905 13.2837 16.7837 13.5905 16.4074 13.7822C15.98 14 15.421 14 14.3031 14M17.4809 11L17.5 12V12.4C17.5 12.9601 17.4996 13.2409 17.3906 13.4548C17.2948 13.6429 17.1423 13.7948 16.9542 13.8906C16.7403 13.9996 16.4597 14 15.8996 14H14.3031" stroke="#D9D9DA" stroke-width="2" stroke-linecap="round" stroke-linejoin="round"/>
</svg>
