<svg width="18" height="18" viewBox="0 0 18 18" fill="none" xmlns="http://www.w3.org/2000/svg">
<path d="M12 17H6M4.19691 14C3.07899 14 2.5192 14 2.0918 13.7822C1.71547 13.5905 1.40973 13.2837 1.21799 12.9074C1.09698 12.6699 1.04315 12.3919 1.0192 12M4.19691 14H13.8031M4.19691 14H2.59961C2.03956 14 1.75981 13.9996 1.5459 13.8906C1.35774 13.7948 1.20487 13.6429 1.10899 13.4548C1 13.2409 1 12.9601 1 12.4V12H1.0192M1.0192 12C1 11.6859 1 11.2985 1 10.8002V4.2002C1 3.08009 1 2.51962 1.21799 2.0918C1.40973 1.71547 1.71547 1.40973 2.0918 1.21799C2.51962 1 3.08009 1 4.2002 1H13.8002C14.9203 1 15.4796 1 15.9074 1.21799C16.2837 1.40973 16.5905 1.71547 16.7822 2.0918C17 2.5192 17 3.07899 17 4.19691V10.8031C17 11.3 17 11.6864 16.9809 12M1.0192 12H16.9809M16.9809 12C16.957 12.3919 16.9032 12.67 16.7822 12.9074C16.5905 13.2837 16.2837 13.5905 15.9074 13.7822C15.48 14 14.921 14 13.8031 14M16.9809 12H17V12.4C17 12.9601 16.9996 13.2409 16.8906 13.4548C16.7948 13.6429 16.6423 13.7948 16.4542 13.8906C16.2403 13.9996 15.9597 14 15.3996 14H13.8031" stroke="#C2C3C4" stroke-linecap="round" stroke-linejoin="round"/>
</svg>
