<svg width="22" height="19" viewBox="0 0 22 19" fill="none" xmlns="http://www.w3.org/2000/svg">
<path d="M1 18H3M3 18H13M3 18V4.2002C3 3.08009 3 2.51962 3.21799 2.0918C3.40973 1.71547 3.71547 1.40973 4.0918 1.21799C4.51962 1 5.08009 1 6.2002 1H9.8002C10.9203 1 11.4796 1 11.9074 1.21799C12.2837 1.40973 12.5905 1.71547 12.7822 2.0918C13 2.5192 13 3.07899 13 4.19691V10M13 18H19M13 18V10M19 18H21M19 18V10C19 9.06812 18.9999 8.60241 18.8477 8.23486C18.6447 7.74481 18.2557 7.35523 17.7656 7.15224C17.3981 7 16.9316 7 15.9997 7C15.0679 7 14.6019 7 14.2344 7.15224C13.7443 7.35523 13.3552 7.74481 13.1522 8.23486C13 8.60241 13 9.06812 13 10M6 8H10M6 5H10" stroke="#C2C3C4" stroke-linecap="round" stroke-linejoin="round"/>
</svg>
