<svg width="18" height="20" viewBox="0 0 18 20" fill="none" xmlns="http://www.w3.org/2000/svg">
<path d="M3 9.00019V4.2002C3 3.08009 3 2.51962 3.21799 2.0918C3.40973 1.71547 3.71547 1.40973 4.0918 1.21799C4.51962 1 5.08009 1 6.2002 1H10.6747C10.7973 1 10.9045 1 11 1.00087M16.9991 7C17 7.09561 17 7.20296 17 7.32568V15.8036C17 16.9215 17 17.4805 16.7822 17.9079C16.5905 18.2842 16.2839 18.5905 15.9076 18.7822C15.4802 19 14.921 19 13.8031 19L10 19M16.9991 7C16.9963 6.71451 16.9857 6.53376 16.9443 6.36133C16.8953 6.15726 16.8142 5.96214 16.7046 5.7832C16.5809 5.58136 16.4089 5.40889 16.063 5.06298L12.9375 1.9375C12.5918 1.59182 12.4186 1.41857 12.2168 1.29492C12.0379 1.18526 11.8429 1.10425 11.6388 1.05526C11.4663 1.01385 11.2856 1.00347 11 1.00087M16.9991 7H17.0002M16.9991 7H14.1969C13.079 7 12.5192 7 12.0918 6.78223C11.7155 6.59048 11.4097 6.28392 11.218 5.90759C11 5.47977 11 4.9201 11 3.8V1.00087M6 12L8 14M1 19V16.5L8.5 9L11 11.5L3.5 19H1Z" stroke="#C2C3C4" stroke-linecap="round" stroke-linejoin="round"/>
</svg>
