<svg width="20" height="21" viewBox="0 0 20 21" fill="none" xmlns="http://www.w3.org/2000/svg">
<path d="M13 16V17C13 18.6569 11.6569 20 10 20C8.34315 20 7 18.6569 7 17V16M13 16H7M13 16H16.5905C16.973 16 17.1652 16 17.3201 15.9478C17.616 15.848 17.8475 15.6156 17.9473 15.3198C17.9997 15.1643 17.9997 14.9715 17.9997 14.5859C17.9997 14.4172 17.9995 14.3329 17.9863 14.2524C17.9614 14.1004 17.9024 13.9563 17.8126 13.8312C17.7651 13.7651 17.7047 13.7048 17.5858 13.5858L17.1963 13.1963C17.0706 13.0706 17 12.9001 17 12.7224V9C17 5.134 13.866 1.99999 10 2C6.13401 2.00001 3 5.13401 3 9V12.7224C3 12.9002 2.92924 13.0706 2.80357 13.1963L2.41406 13.5858C2.29477 13.7051 2.23504 13.765 2.1875 13.8312C2.09766 13.9564 2.03815 14.1004 2.0132 14.2524C2 14.3329 2 14.4172 2 14.586C2 14.9715 2 15.1642 2.05245 15.3197C2.15225 15.6156 2.3848 15.848 2.68066 15.9478C2.83556 16 3.02701 16 3.40956 16H7M16.0186 1.01367C17.3978 2.05299 18.4843 3.43177 19.1724 5.01574M3.98197 1.01367C2.60275 2.05299 1.5162 3.43177 0.828125 5.01574" stroke="#C2C3C4" stroke-linecap="round" stroke-linejoin="round"/>
</svg>
