<svg width="22" height="14" viewBox="0 0 22 14" fill="none" xmlns="http://www.w3.org/2000/svg">
<path d="M17 10H18M8 10H14M5 10H4M4 7H18M4 4H18M1 9.8002V4.2002C1 3.08009 1 2.51962 1.21799 2.0918C1.40973 1.71547 1.71547 1.40973 2.0918 1.21799C2.51962 1 3.08009 1 4.2002 1H17.8002C18.9203 1 19.4796 1 19.9074 1.21799C20.2837 1.40973 20.5905 1.71547 20.7822 2.0918C21 2.5192 21 3.07899 21 4.19691V9.80309C21 10.921 21 11.48 20.7822 11.9074C20.5905 12.2837 20.2837 12.5905 19.9074 12.7822C19.48 13 18.921 13 17.8031 13H4.19691C3.07899 13 2.5192 13 2.0918 12.7822C1.71547 12.5905 1.40973 12.2837 1.21799 11.9074C1 11.4796 1 10.9203 1 9.8002Z" stroke="#C2C3C4" stroke-linecap="round" stroke-linejoin="round"/>
</svg>
