<svg width="18" height="17" viewBox="0 0 18 17" fill="none" xmlns="http://www.w3.org/2000/svg">
<path d="M12 16H6M1 9.8002V4.2002C1 3.08009 1 2.51962 1.21799 2.0918C1.40973 1.71547 1.71547 1.40973 2.0918 1.21799C2.51962 1 3.08009 1 4.2002 1H13.8002C14.9203 1 15.4796 1 15.9074 1.21799C16.2837 1.40973 16.5905 1.71547 16.7822 2.0918C17 2.5192 17 3.07899 17 4.19691V9.80309C17 10.921 17 11.48 16.7822 11.9074C16.5905 12.2837 16.2837 12.5905 15.9074 12.7822C15.48 13 14.921 13 13.8031 13H4.19691C3.07899 13 2.5192 13 2.0918 12.7822C1.71547 12.5905 1.40973 12.2837 1.21799 11.9074C1 11.4796 1 10.9203 1 9.8002ZM11.5 7L7 4V10L11.5 7Z" stroke="#C2C3C4" stroke-linecap="round" stroke-linejoin="round"/>
</svg>
