<svg width="18" height="18" viewBox="0 0 18 18" fill="none" xmlns="http://www.w3.org/2000/svg">
<path d="M5 1H4.2002C3.08009 1 2.51962 1 2.0918 1.21799C1.71547 1.40973 1.40973 1.71547 1.21799 2.0918C1 2.51962 1 3.08009 1 4.2002V13.8002C1 14.9203 1 15.4801 1.21799 15.9079C1.40973 16.2842 1.71547 16.5905 2.0918 16.7822C2.5192 17 3.07899 17 4.19691 17H5M5 1H13.8002C14.9203 1 15.4796 1 15.9074 1.21799C16.2837 1.40973 16.5905 1.71547 16.7822 2.0918C17 2.5192 17 3.07899 17 4.19691V13.8036C17 14.9215 17 15.4805 16.7822 15.9079C16.5905 16.2842 16.2837 16.5905 15.9074 16.7822C15.48 17 14.921 17 13.8031 17H5M5 1V17M9 8H13M9 5H13" stroke="#C2C3C4" stroke-linecap="round" stroke-linejoin="round"/>
</svg>
