<svg width="20" height="20" viewBox="0 0 20 20" fill="none" xmlns="http://www.w3.org/2000/svg">
<path d="M18 5H15.8486C15.3511 5 15 4.49751 15 4C15 2.34315 13.6569 1 12 1C10.3431 1 9 2.34315 9 4C9 4.49751 8.64884 5 8.15134 5H6C5.44771 5 5 5.44772 5 6V8.15133C5 8.64884 4.49751 9 4 9C2.34315 9 1 10.3431 1 12C1 13.6569 2.34315 15 4 15C4.49751 15 5 15.3511 5 15.8486V18C5 18.5523 5.44771 19 6 19L18 19C18.5523 19 19 18.5523 19 18V15.8486C19 15.3511 18.4975 15 18 15C16.3431 15 15 13.6569 15 12C15 10.3431 16.3431 9 18 9C18.4975 9 19 8.64884 19 8.15134L19 6C19 5.44772 18.5523 5 18 5Z" stroke="#C2C3C4" stroke-linecap="round" stroke-linejoin="round"/>
</svg>
