<svg width="14" height="15" viewBox="0 0 14 15" fill="none" xmlns="http://www.w3.org/2000/svg">
<path d="M7.00315 3.90635C5.01565 3.90635 3.41252 5.50947 3.41252 7.49697C3.41252 9.48447 5.01565 11.0876 7.00315 11.0876C8.99065 11.0876 10.5938 9.48447 10.5938 7.49697C10.5938 5.50947 8.99065 3.90635 7.00315 3.90635ZM7.00315 9.83135C5.71877 9.83135 4.66877 8.78447 4.66877 7.49697C4.66877 6.20947 5.71565 5.1626 7.00315 5.1626C8.29065 5.1626 9.33752 6.20947 9.33752 7.49697C9.33752 8.78447 8.28752 9.83135 7.00315 9.83135ZM11.5781 3.75947C11.5781 4.2251 11.2031 4.59697 10.7407 4.59697C10.275 4.59697 9.90315 4.22197 9.90315 3.75947C9.90315 3.29697 10.2782 2.92197 10.7407 2.92197C11.2031 2.92197 11.5781 3.29697 11.5781 3.75947ZM13.9563 4.60947C13.9031 3.4876 13.6469 2.49385 12.825 1.6751C12.0063 0.856348 11.0125 0.600098 9.89065 0.543848C8.7344 0.478223 5.26877 0.478223 4.11252 0.543848C2.99377 0.596973 2.00002 0.853223 1.17815 1.67197C0.356274 2.49072 0.103149 3.48447 0.0468994 4.60635C-0.0187256 5.7626 -0.0187256 9.22822 0.0468994 10.3845C0.100024 11.5063 0.356274 12.5001 1.17815 13.3188C2.00002 14.1376 2.99065 14.3938 4.11252 14.4501C5.26877 14.5157 8.7344 14.5157 9.89065 14.4501C11.0125 14.397 12.0063 14.1407 12.825 13.3188C13.6438 12.5001 13.9 11.5063 13.9563 10.3845C14.0219 9.22822 14.0219 5.76572 13.9563 4.60947ZM12.4625 11.6251C12.2188 12.2376 11.7469 12.7095 11.1313 12.9563C10.2094 13.322 8.0219 13.2376 7.00315 13.2376C5.9844 13.2376 3.79377 13.3188 2.87502 12.9563C2.26252 12.7126 1.79065 12.2407 1.54377 11.6251C1.17815 10.7032 1.26252 8.51572 1.26252 7.49697C1.26252 6.47822 1.18127 4.2876 1.54377 3.36885C1.78752 2.75635 2.2594 2.28447 2.87502 2.0376C3.7969 1.67197 5.9844 1.75635 7.00315 1.75635C8.0219 1.75635 10.2125 1.6751 11.1313 2.0376C11.7438 2.28135 12.2156 2.75322 12.4625 3.36885C12.8281 4.29072 12.7438 6.47822 12.7438 7.49697C12.7438 8.51572 12.8281 10.7063 12.4625 11.6251Z" fill="white"/>
</svg>
