<svg width="14" height="15" viewBox="0 0 14 15" fill="none" xmlns="http://www.w3.org/2000/svg">
<path d="M3.13375 14.4999H0.23125V5.15306H3.13375V14.4999ZM1.68094 3.87806C0.752813 3.87806 0 3.10931 0 2.18118C6.64312e-09 1.73537 0.177098 1.30782 0.492335 0.992579C0.807572 0.677342 1.23513 0.500244 1.68094 0.500244C2.12675 0.500244 2.5543 0.677342 2.86954 0.992579C3.18478 1.30782 3.36188 1.73537 3.36188 2.18118C3.36188 3.10931 2.60875 3.87806 1.68094 3.87806ZM13.9969 14.4999H11.1006V9.94993C11.1006 8.86556 11.0787 7.47493 9.59156 7.47493C8.0825 7.47493 7.85125 8.65306 7.85125 9.87181V14.4999H4.95188V5.15306H7.73562V6.42806H7.77625C8.16375 5.69368 9.11031 4.91868 10.5225 4.91868C13.46 4.91868 14 6.85306 14 9.36556V14.4999H13.9969Z" fill="white"/>
</svg>
