<svg width="40" height="40" viewBox="0 0 40 40" fill="none" xmlns="http://www.w3.org/2000/svg">
<g id="Group 2085666491">
<rect id="Rectangle 240653267" x="0.5" y="0.5" width="39" height="39" rx="7.5" fill="black" stroke="#F4F4F5"/>
<g id="Frame" clip-path="url(#clip0_923_5284)">
<path id="Vector" d="M20 12C15.58 12 12 15.58 12 20C12 23.54 14.29 26.53 17.47 27.59C17.87 27.66 18.02 27.42 18.02 27.21C18.02 27.02 18.01 26.39 18.01 25.72C16 26.09 15.48 25.23 15.32 24.78C15.23 24.55 14.84 23.84 14.5 23.65C14.22 23.5 13.82 23.13 14.49 23.12C15.12 23.11 15.57 23.7 15.72 23.94C16.44 25.15 17.59 24.81 18.05 24.6C18.12 24.08 18.33 23.73 18.56 23.53C16.78 23.33 14.92 22.64 14.92 19.58C14.92 18.71 15.23 17.99 15.74 17.43C15.66 17.23 15.38 16.41 15.82 15.31C15.82 15.31 16.49 15.1 18.02 16.13C18.66 15.95 19.34 15.86 20.02 15.86C20.7 15.86 21.38 15.95 22.02 16.13C23.55 15.09 24.22 15.31 24.22 15.31C24.66 16.41 24.38 17.23 24.3 17.43C24.81 17.99 25.12 18.7 25.12 19.58C25.12 22.65 23.25 23.33 21.47 23.53C21.76 23.78 22.01 24.26 22.01 25.01C22.01 26.08 22 26.94 22 27.21C22 27.42 22.15 27.67 22.55 27.59C24.1384 27.0543 25.5187 26.0337 26.4964 24.672C27.4741 23.3104 28 21.6763 28 20C28 15.58 24.42 12 20 12Z" fill="white"/>
</g>
</g>
<defs>
<clipPath id="clip0_923_5284">
<rect width="16" height="16" fill="white" transform="translate(12 12)"/>
</clipPath>
</defs>
</svg>
