<svg width="40" height="40" viewBox="0 0 40 40" fill="none" xmlns="http://www.w3.org/2000/svg">
<g id="Group 2085666489">
<rect id="Rectangle 240653267" x="0.5" y="0.5" width="39" height="39" rx="7.5" fill="#F8F8F8" stroke="#F4F4F5"/>
<g id="ReactIcons/FcGoogle">
<path id="Vector" d="M26.5369 18.6945H25.9999V18.6668H19.9999V21.3335H23.7676C23.2179 22.8858 21.7409 24.0002 19.9999 24.0002C17.7909 24.0002 15.9999 22.2092 15.9999 20.0002C15.9999 17.7912 17.7909 16.0002 19.9999 16.0002C21.0196 16.0002 21.9473 16.3848 22.6536 17.0132L24.5393 15.1275C23.3486 14.0178 21.7559 13.3335 19.9999 13.3335C16.3183 13.3335 13.3333 16.3185 13.3333 20.0002C13.3333 23.6818 16.3183 26.6668 19.9999 26.6668C23.6816 26.6668 26.6666 23.6818 26.6666 20.0002C26.6666 19.5532 26.6206 19.1168 26.5369 18.6945Z" fill="#FFC107"/>
<path id="Vector_2" d="M14.1021 16.8972L16.2924 18.5035C16.8851 17.0362 18.3204 16.0002 20.0001 16.0002C21.0197 16.0002 21.9474 16.3848 22.6537 17.0132L24.5394 15.1275C23.3487 14.0178 21.7561 13.3335 20.0001 13.3335C17.4394 13.3335 15.2187 14.7792 14.1021 16.8972Z" fill="#FF3D00"/>
<path id="Vector_3" d="M19.9999 26.6669C21.7219 26.6669 23.2866 26.0079 24.4696 24.9362L22.4063 23.1902C21.7369 23.6972 20.9049 24.0002 19.9999 24.0002C18.2659 24.0002 16.7936 22.8946 16.2389 21.3516L14.0649 23.0266C15.1683 25.1856 17.4089 26.6669 19.9999 26.6669Z" fill="#4CAF50"/>
<path id="Vector_4" d="M26.537 18.6942H26V18.6665H20V21.3332H23.7677C23.5037 22.0788 23.024 22.7218 22.4053 23.1902L22.4063 23.1895L24.4697 24.9355C24.3237 25.0682 26.6667 23.3332 26.6667 19.9998C26.6667 19.5528 26.6207 19.1165 26.537 18.6942Z" fill="#1976D2"/>
</g>
</g>
</svg>
