<svg width="40" height="40" viewBox="0 0 40 40" fill="none" xmlns="http://www.w3.org/2000/svg">
<g id="Group 2085666490">
<rect id="Rectangle 240653266" x="0.5" y="0.5" width="39" height="39" rx="7.5" fill="#FEE500" stroke="#F4F4F5"/>
<g id="Frame">
<path id="Vector" d="M20 13C15.5815 13 12 15.8238 12 19.3076C12 21.56 13.4977 23.5384 15.75 24.6523C15.6277 25.0746 14.9623 27.3708 14.9361 27.5515C14.9361 27.5515 14.92 27.6869 15.0077 27.7384C15.037 27.7532 15.0691 27.7618 15.1019 27.7639C15.1347 27.7659 15.1675 27.7611 15.1985 27.75C15.4508 27.7146 18.1215 25.8415 18.5831 25.5192C19.0525 25.5844 19.526 25.6165 20 25.6154C24.4184 25.6154 28 22.7915 28 19.3076C28 15.8238 24.4184 13 20 13Z" fill="black" fill-opacity="0.9"/>
</g>
</g>
</svg>
