<svg width="360" height="16" viewBox="0 0 360 16" fill="none" xmlns="http://www.w3.org/2000/svg">
<line y1="7.5" x2="143" y2="7.5" stroke="#E6E6E8"/>
<line x1="217" y1="7.5" x2="360" y2="7.5" stroke="#E6E6E8"/>
<path d="M152.436 3.964H157.452C157.452 6.748 155.496 8.788 152.4 9.76L152.004 8.98C154.536 8.188 156.192 6.664 156.396 4.768H152.436V3.964ZM154.608 10.192V12.844H160.8V13.648H153.624V10.192H154.608ZM160.332 6.4H161.928V7.216H160.332V10.996H159.348V3.136H160.332V6.4ZM170.891 11.128V8.032H169.091V7.228H170.891V5.968H169.091V5.176H170.891V3.136H171.887V11.128H170.891ZM165.359 4.792V8.668C165.887 8.656 166.439 8.632 166.979 8.608V4.792H165.359ZM169.343 8.416L169.403 9.148C167.339 9.472 164.903 9.508 163.163 9.508L163.055 8.692C163.463 8.692 163.931 8.692 164.411 8.68V4.792H163.343V4H169.007V4.792H167.939V8.548C168.419 8.524 168.899 8.476 169.343 8.416ZM165.971 12.844H172.163V13.648H164.987V10.48H165.971V12.844ZM182.539 11.752H186.943V12.556H177.163V11.752H181.543V9.724H178.387V6.4H184.771V4.72H178.363V3.916H185.731V7.192H179.359V8.932H185.983V9.724H182.539V11.752ZM195.678 5.344V5.068H189.27V4.264H196.194V4.276H196.65V5.344C196.65 6.712 196.65 8.26 196.23 10.588L195.246 10.48C195.678 8.284 195.678 6.676 195.678 5.344ZM188.226 11.5H197.958V12.316H188.226V11.5ZM208.085 3.136V10.996H207.101V3.136H208.085ZM200.465 6.52C200.465 7.588 201.257 8.332 202.301 8.332C203.369 8.332 204.161 7.588 204.161 6.52C204.161 5.476 203.369 4.732 202.301 4.732C201.257 4.732 200.465 5.476 200.465 6.52ZM205.121 6.52C205.121 8.08 203.909 9.184 202.301 9.184C200.705 9.184 199.505 8.08 199.505 6.52C199.505 4.972 200.705 3.88 202.301 3.88C203.909 3.88 205.121 4.972 205.121 6.52ZM202.145 12.844H208.409V13.648H201.161V10.192H202.145V12.844Z" fill="#B2B2B4"/>
</svg>
